<svg x="0" y="0" width="48" height="48" version="1.1" xmlns="http://www.w3.org/2000/svg" xmlns:xlink="http://www.w3.org/1999/xlink"><defs><linearGradient x1="11.69119" y1="11.68966" x2="57.52201" y2="57.52353" gradientUnits="userSpaceOnUse" id="color-1"><stop offset="0" stop-color="#000000" stop-opacity="0.7"></stop><stop offset="1" stop-color="#000000" stop-opacity="0"></stop></linearGradient><filter id="dropshadow"><feColorMatrix type="matrix" values="0 0 0 0 .05  0 0 0 0 .15  0 0 0 0 .1  0 0 0 .8 0"></feColorMatrix> <feOffset dx="0" dy="1"></feOffset> <feGaussianBlur stdDeviation="1"></feGaussianBlur> <feComposite in="SourceGraphic"></feComposite></filter></defs><g fill="none" stroke="none" stroke-width="none" stroke-linecap="butt" stroke-linejoin="miter" stroke-miterlimit="none" stroke-dasharray="" stroke-dashoffset="0" font-family="none" font-weight="normal" font-size="none" text-anchor="start" mix-blend-mode="normal"><g fill="#000000" stroke="none" stroke-width="1" stroke-miterlimit="4" font-family="&quot;Open Sans&quot;, sans-serif" font-size="14"></g><path d="M3,24c0,-11.59798 9.40202,-21 21,-21c11.59798,0 21,9.40202 21,21c0,11.59798 -9.40202,21 -21,21c-11.59798,0 -21,-9.40202 -21,-21z" fill="#41533b" stroke-width="1" stroke-miterlimit="10" font-family="sans-serif" font-size="12" filter="url(#dropshadow)"></path><path d="M26.30158,44.87532l-14.25116,-14.25116c-0.47897,-0.47897 -0.47897,-1.25882 0,-1.73779l0.00001,0.00001l4.8879,-4.88177l-4.88791,-4.88791c-0.47897,-0.47897 -0.47897,-1.25882 0,-1.73779c0,0 0.00001,0.00001 0.00001,0.00001l5.33002,-5.32389l18.56605,18.56605c0,0 0,0 0,-0.00001l-18.56606,-18.56606c0.23948,-0.23948 0.55265,-0.36229 0.86582,-0.36229c0,0 0.00001,0.00001 0.00001,0.00001c0.31317,0 0.62633,0.12281 0.86581,0.36229c0,0 16.83432,16.83432 16.83432,16.83432c-0.00099,-0.00099 -0.00197,-0.00198 -0.00297,-0.00298c0,0 0,0 0,0l-16.83135,-16.83135l4.88791,4.88177c0,0 0,0 0,0c0,0 4.8879,-4.8879 4.8879,-4.8879l-0.00001,-0.00001c0.47897,-0.47897 1.25882,-0.47897 1.73779,0l5.32686,5.32686c-0.00099,-0.00099 -0.00197,-0.00198 -0.00297,-0.00298l8.92604,8.92604c-1.06269,9.7606 -8.81382,17.51256 -18.57404,18.57651z" fill="url(#color-1)" stroke-width="1" stroke-miterlimit="10" font-family="sans-serif" font-size="12"></path><path d="M31.06167,23.99846l4.88177,4.88791c0.47897,0.47897 0.47897,1.25882 0,1.73779l-5.32389,5.32389c-0.23948,0.23948 -0.55265,0.36229 -0.86582,0.36229c-0.31317,0 -0.62634,-0.12281 -0.86582,-0.36229l-4.88791,-4.88791l-4.88791,4.88791c-0.47897,0.47897 -1.25882,0.47897 -1.73779,0l-5.32389,-5.32389c-0.47897,-0.47897 -0.47897,-1.25882 0,-1.73779l4.88791,-4.88177l-4.88791,-4.88791c-0.47897,-0.47897 -0.47897,-1.25882 0,-1.73779l5.33003,-5.32389c0.23948,-0.23948 0.55265,-0.36229 0.86582,-0.36229c0.31317,0 0.62634,0.12281 0.86582,0.36229l4.88791,4.88177l4.88791,-4.88791c0.47897,-0.47897 1.25882,-0.47897 1.73779,0l5.32389,5.32389c0.47897,0.47897 0.47897,1.25882 0,1.73779l-4.88791,4.88791z M22.6982,18.2386l-4.45192,-4.45192l-4.45806,4.45806l4.45192,4.45192z M34.21179,29.75219l-4.45192,-4.45192l-4.45806,4.45806l4.45192,4.45192z M25.25268,26.43014c0,-0.67546 -0.55265,-1.22812 -1.22812,-1.22812c-0.67546,0 -1.22812,0.55265 -1.22812,1.22812c0,0.67546 0.55265,1.22812 1.22812,1.22812c0.67546,0 1.22812,-0.55265 1.22812,-1.22812z M22.79645,21.51767c0,0.67546 0.55265,1.22812 1.22812,1.22812c0.67546,0 1.22812,-0.55265 1.22812,-1.22812c0,-0.67546 -0.55265,-1.22812 -1.22812,-1.22812c-0.67546,0 -1.22812,0.55265 -1.22812,1.22812z M22.79645,23.9739c0,-0.67546 -0.55265,-1.22812 -1.22812,-1.22812c-0.67546,0 -1.22812,0.55265 -1.22812,1.22812c0,0.67546 0.55265,1.22812 1.22812,1.22812c0.67546,0 1.22812,-0.55265 1.22812,-1.22812z M25.25268,23.9739c0,0.67546 0.55265,1.22812 1.22812,1.22812c0.67546,0 1.22812,-0.55265 1.22812,-1.22812c0,-0.67546 -0.55265,-1.22812 -1.22812,-1.22812c-0.67546,0 -1.22812,0.55265 -1.22812,1.22812z" fill="#9e9a75" stroke="none" stroke-width="0" stroke-miterlimit="4" font-family="&quot;Open Sans&quot;, sans-serif" font-size="14"></path></g></svg>